<svg width="76" height="22" viewBox="0 0 76 22" fill="none" xmlns="http://www.w3.org/2000/svg">
<path d="M16.056 18C15.6507 18 15.2773 17.8987 14.936 17.696C14.6053 17.4933 14.3387 17.2267 14.136 16.896C13.944 16.5653 13.848 16.1973 13.848 15.792V8.72H15.944V15.712C15.944 15.7653 15.96 15.8133 15.992 15.856C16.0347 15.888 16.0827 15.904 16.136 15.904H20.984C21.0373 15.904 21.08 15.888 21.112 15.856C21.1547 15.8133 21.176 15.7653 21.176 15.712V8.72H23.272V15.792C23.272 16.1973 23.1707 16.5653 22.968 16.896C22.776 17.2267 22.5147 17.4933 22.184 17.696C21.8533 17.8987 21.48 18 21.064 18H16.056ZM27.165 18C26.7597 18 26.3917 17.8987 26.061 17.696C25.7303 17.4933 25.4637 17.2267 25.261 16.896C25.0583 16.5653 24.957 16.1973 24.957 15.792V5.664H27.069V15.712C27.069 15.7653 27.085 15.8133 27.117 15.856C27.1597 15.888 27.2077 15.904 27.261 15.904H29.037V18H27.165ZM32.3678 18C31.9624 18 31.5944 17.8987 31.2638 17.696C30.9331 17.4933 30.6664 17.2267 30.4638 16.896C30.2611 16.5653 30.1598 16.1973 30.1598 15.792V10.928C30.1598 10.5227 30.2611 10.1547 30.4638 9.824C30.6664 9.49333 30.9331 9.22667 31.2638 9.024C31.5944 8.82133 31.9624 8.72 32.3678 8.72H39.5678V10.816H32.4478C32.3944 10.816 32.3464 10.8373 32.3038 10.88C32.2718 10.912 32.2558 10.9547 32.2558 11.008V15.712C32.2558 15.7653 32.2718 15.8133 32.3038 15.856C32.3464 15.888 32.3944 15.904 32.4478 15.904H39.5838V18H32.3678ZM41.1914 18V10.928C41.1914 10.5227 41.2927 10.1547 41.4954 9.824C41.698 9.49333 41.9647 9.22667 42.2954 9.024C42.6367 8.82133 43.0047 8.72 43.3994 8.72H48.5514V10.816H43.4794C43.426 10.816 43.378 10.8373 43.3354 10.88C43.3034 10.912 43.2874 10.9547 43.2874 11.008V18H41.1914ZM51.9935 18C51.5882 18 51.2148 17.8987 50.8735 17.696C50.5428 17.4933 50.2762 17.2267 50.0735 16.896C49.8815 16.5653 49.7855 16.1973 49.7855 15.792V8.72H51.8815V15.712C51.8815 15.7653 51.8975 15.8133 51.9295 15.856C51.9722 15.888 52.0202 15.904 52.0735 15.904H56.9215C56.9748 15.904 57.0175 15.888 57.0495 15.856C57.0922 15.8133 57.1135 15.7653 57.1135 15.712V8.72H59.2095V15.792C59.2095 16.1973 59.1082 16.5653 58.9055 16.896C58.7135 17.2267 58.4522 17.4933 58.1215 17.696C57.7908 17.8987 57.4175 18 57.0015 18H51.9935ZM60.5359 18V8.72H72.0399C72.4559 8.72 72.8292 8.82133 73.1599 9.024C73.4905 9.22667 73.7519 9.49333 73.9439 9.824C74.1465 10.1547 74.2479 10.5227 74.2479 10.928V18H72.1679V11.008C72.1679 10.9547 72.1465 10.912 72.1039 10.88C72.0612 10.8373 72.0132 10.816 71.9599 10.816H68.6479C68.5945 10.816 68.5465 10.8373 68.5039 10.88C68.4719 10.912 68.4559 10.9547 68.4559 11.008V18H66.3439V11.008C66.3439 10.9547 66.3225 10.912 66.2799 10.88C66.2479 10.8373 66.2052 10.816 66.1519 10.816H62.8239C62.7705 10.816 62.7225 10.8373 62.6799 10.88C62.6479 10.912 62.6319 10.9547 62.6319 11.008V18H60.5359Z" fill="#3A506B"/>
<path d="M1 0C0.447715 0 0 0.447715 0 1C0 1.55228 0.447715 2 1 2V0ZM10.6 2H11.6V0H10.6V2ZM1 1V2H10.6V1V0H1V1Z" fill="#3A506B"/>
<path d="M1 4C0.447715 4 0 4.44772 0 5C0 5.55228 0.447715 6 1 6V4ZM5 6H6V4H5V6ZM1 5V6H5V5V4H1V5Z" fill="#3A506B"/>
<path d="M1 8C0.447715 8 0 8.44772 0 9C0 9.55228 0.447715 10 1 10V8ZM10.6 10H11.6V8H10.6V10ZM1 9V10H10.6V9V8H1V9Z" fill="#3A506B"/>
<path d="M1 12C0.447715 12 0 12.4477 0 13C0 13.5523 0.447715 14 1 14V12ZM5 14H6V12H5V14ZM1 13V14H5V13V12H1V13Z" fill="#3A506B"/>
<path d="M1 16C0.447715 16 0 16.4477 0 17C0 17.5523 0.447715 18 1 18V16ZM5 18H6V16H5V18ZM1 17V18H5V17V16H1V17Z" fill="#3A506B"/>
</svg>
