<svg width="30" height="30" viewBox="0 0 30 30" fill="none" xmlns="http://www.w3.org/2000/svg">
<path d="M11.7075 13.3525C12.8806 15.4129 14.5871 17.1194 16.6475 18.2925L17.7525 16.745C17.9302 16.4962 18.1929 16.3211 18.491 16.2529C18.7891 16.1847 19.1018 16.2282 19.37 16.375C21.1376 17.3419 23.0901 17.923 25.0988 18.08C25.4122 18.1048 25.7048 18.2469 25.9182 18.4779C26.1316 18.7089 26.25 19.0118 26.25 19.3263V24.9038C26.2501 25.2132 26.1353 25.5118 25.928 25.7415C25.7206 25.9713 25.4354 26.1159 25.1275 26.1475C24.465 26.2158 23.7975 26.25 23.125 26.25C12.425 26.25 3.75 17.575 3.75 6.875C3.75 6.2025 3.78417 5.535 3.8525 4.8725C3.88407 4.56462 4.02873 4.2794 4.25849 4.07204C4.48824 3.86468 4.78676 3.74993 5.09625 3.75H10.6737C10.9882 3.74996 11.2911 3.86844 11.5221 4.08181C11.7531 4.29519 11.8952 4.58778 11.92 4.90125C12.077 6.90989 12.6581 8.86242 13.625 10.63C13.7718 10.8982 13.8153 11.2109 13.7471 11.509C13.6789 11.8071 13.5038 12.0698 13.255 12.2475L11.7075 13.3525ZM8.555 12.5312L10.93 10.835C10.2558 9.38018 9.79402 7.83609 9.55875 6.25H6.2625C6.25417 6.45833 6.25 6.66667 6.25 6.875C6.25 16.195 13.805 23.75 23.125 23.75C23.3333 23.75 23.5417 23.7458 23.75 23.7375V20.4412C22.1639 20.206 20.6198 19.7442 19.165 19.07L17.4688 21.445C16.7859 21.1794 16.1226 20.8662 15.4838 20.5075L15.4113 20.4662C12.9596 19.0707 10.9293 17.0404 9.53375 14.5887L9.4925 14.5162C9.13348 13.8776 8.82019 13.2142 8.555 12.5312Z" fill="white"/>
</svg>
